<svg xmlns="http://www.w3.org/2000/svg" xml:space="preserve" width="2.66666in" height="2.66666in" version="1.1" style="shape-rendering:geometricPrecision; text-rendering:geometricPrecision; image-rendering:optimizeQuality; fill-rule:evenodd; clip-rule:evenodd" viewBox="0 0 2667 2667" xmlns:xlink="http://www.w3.org/1999/xlink">
 <defs>
  <style type="text/css">
   
    .fil2 {fill:#333333}
    .fil4 {fill:#57555C}
    .fil3 {fill:#BCE2F6}
    .fil1 {fill:#CF5300}
    .fil0 {fill:#FF6600}
    .fil5 {fill:#FFE600}
   
  </style>
 </defs>
 <rect class="fil0" width="2667" height="2667" rx="500" ry="500" id="id_101"></rect>
 <g id="Layer_x0020_1">
  <metadata id="CorelCorpID_0Corel-Layer"></metadata>
  <path class="fil1" d="M2057 1469c95,17 167,100 167,199l0 383c0,112 -91,202 -203,202l-1309 0c-112,0 -202,-90 -202,-202l0 -383c0,-99 72,-182 166,-199l0 -767c0,-159 130,-289 289,-289l720 0c24,0 47,10 64,27l280 280c19,19 28,42 28,69l0 680zm-398 -628l-95 95c-3,3 -5,5 -8,7l226 0c32,0 62,16 78,45 29,53 -1,119 -58,131 24,6 45,21 58,43 29,54 -1,119 -58,132 24,5 45,20 58,43 28,51 2,113 -50,129l68 0 0 -591 -120 0c-37,0 -72,-13 -99,-34zm-63 -214l0 -35 -35 0c1,1 2,2 3,3l32 32zm-244 -35l-31 0c6,5 11,11 15,18 5,-7 10,-13 16,-18zm-151 0l-236 0c-61,0 -110,49 -110,110l0 764 100 0c-21,-6 -38,-21 -50,-41 -29,-53 1,-119 58,-131 -24,-6 -45,-21 -58,-43 -29,-54 1,-119 58,-132 -24,-5 -45,-20 -58,-43 -32,-59 9,-133 78,-133l223 0c-3,-2 -5,-4 -8,-7l-107 -107c-35,-35 -35,-92 0,-127l107 -107c1,-1 2,-2 3,-3zm91 161l-12 13 7 7 5 -20zm120 190l32 0c-6,-6 -12,-12 -16,-19 -5,7 -10,13 -16,19zm60 -168l9 -9 -5 -6 -4 15z" id="id_102"></path>
  <path class="fil0" d="M2024 1469c94,17 166,100 166,199l0 383c0,112 -90,202 -202,202l-1309 0c-112,0 -203,-90 -203,-202l0 -383c0,-99 72,-182 167,-199l0 -767c0,-159 129,-289 288,-289l721 0c24,0 47,10 64,27l280 280c18,19 28,42 28,69l0 680zm-398 -628l-96 95c-2,3 -5,5 -7,7l225 0c33,0 62,16 78,45 30,53 -1,119 -58,131 25,6 46,21 58,43 30,54 -1,119 -57,132 24,5 45,20 57,43 28,51 2,113 -50,129l69 0 0 -591 -121 0c-37,0 -71,-13 -98,-34zm-63 -214l0 -35 -36 0c1,1 2,2 3,3l33 32zm-244 -35l-31 0c6,5 11,11 15,18 4,-7 10,-13 16,-18zm-151 0l-237 0c-60,0 -109,49 -109,110l0 764 100 0c-21,-6 -39,-21 -50,-41 -29,-53 1,-119 58,-131 -24,-6 -45,-21 -58,-43 -29,-54 1,-119 58,-132 -24,-5 -45,-20 -58,-43 -33,-59 8,-133 78,-133l222 0c-2,-2 -5,-4 -7,-7l-108 -107c-34,-35 -34,-92 0,-127l108 -107c1,-1 2,-2 3,-3zm91 161l-12 13 7 7 5 -20zm120 190l32 0c-6,-6 -12,-12 -17,-19 -4,7 -9,13 -15,19zm59 -168l10 -9 -6 -6 -4 15z" id="id_103"></path>
  <path class="fil2" d="M1682 2071c-139,0 -177,-140 -124,-140 13,0 23,10 23,23 0,39 46,71 101,71 54,0 100,-32 100,-71 0,-48 -32,-59 -104,-72 -64,-11 -142,-26 -142,-116 0,-65 65,-117 146,-117 138,0 176,139 123,139 -13,0 -23,-10 -23,-22 0,-39 -46,-72 -100,-72 -55,0 -101,33 -101,72 0,47 32,58 105,71 63,12 142,26 142,117 0,64 -66,117 -146,117zm252 -493l0 0 -1255 0c-50,0 -91,41 -91,90l0 383c0,50 41,90 91,90l1309 0c50,0 90,-40 90,-90l0 -383c0,-49 -40,-90 -90,-90l-54 0zm-22 -45l0 -725 -188 0c-52,0 -95,-43 -95,-95l0 -188 -698 0c-97,0 -176,80 -176,177l0 831 1157 0zm45 -744l0 744 31 0c75,0 136,61 136,135l0 383c0,75 -61,136 -136,136l-1309 0c-75,0 -136,-61 -136,-136l0 -383c0,-74 61,-135 136,-135l31 0 0 -831c0,-122 99,-222 221,-222l721 0c7,0 12,3 17,7l280 280c6,6 10,13 8,22zm-282 -231l0 155c0,27 22,49 49,49l156 0 -205 -204zm73 846l-798 0c-30,0 -30,-46 0,-46l798 0c30,0 30,46 0,46zm0 -175l-798 0c-30,0 -30,-45 0,-45l798 0c30,0 30,45 0,45zm0 -174l-798 0c-30,0 -30,-46 0,-46l798 0c30,0 30,46 0,46zm-281 -159c-20,0 -30,-25 -16,-39l91 -91 -91 -92c-21,-21 11,-53 32,-32l108 107c8,9 8,24 0,33l-108 107c-4,4 -10,7 -16,7zm-239 0c-6,0 -12,-3 -16,-7l-107 -107c-9,-9 -9,-24 0,-33l107 -107c21,-21 53,11 32,32l-91 92 91 91c14,14 4,39 -16,39zm91 4c-15,0 -26,-15 -22,-29l58 -216c7,-29 51,-17 43,11l-57 217c-3,10 -12,17 -22,17zm31 1171c-138,0 -176,-140 -123,-140 12,0 23,10 23,23 0,39 46,71 100,71 55,0 101,-32 101,-71 0,-48 -32,-59 -105,-72 -63,-11 -142,-26 -142,-116 0,-65 66,-117 146,-117 138,0 177,139 123,139 -12,0 -22,-10 -22,-22 0,-39 -46,-72 -101,-72 -54,0 -100,33 -100,72 0,47 31,58 104,71 63,12 142,26 142,117 0,64 -65,117 -146,117zm-333 0c-98,0 -178,-95 -178,-211 0,-117 80,-212 178,-212 65,0 125,42 156,109 13,27 -28,46 -41,19 -68,-145 -247,-85 -247,84 0,168 179,229 247,83 13,-27 54,-8 41,19 -31,67 -91,109 -156,109z" id="id_104"></path>
  <path class="fil3" d="M1355 655c7,-29 51,-17 43,11l-57 217c-3,10 -12,17 -22,17 -15,0 -26,-15 -22,-29l58 -216zm-405 354l798 0c30,0 30,46 0,46l-798 0c-30,0 -30,-46 0,-46zm0 175l798 0c30,0 30,45 0,45l-798 0c-30,0 -30,-45 0,-45zm0 174l798 0c30,0 30,46 0,46l-798 0c-30,0 -30,-46 0,-46zm-195 175l1157 0 0 -725 -188 0c-52,0 -95,-43 -95,-95l0 -188 -698 0c-97,0 -176,80 -176,177l0 831zm712 -637c-20,0 -30,-25 -16,-39l91 -91 -91 -92c-21,-21 11,-53 32,-32l108 107c8,9 8,24 0,33l-108 107c-4,4 -10,7 -16,7zm-314 -130l91 91c14,14 4,39 -16,39 -6,0 -12,-3 -16,-7l-107 -107c-9,-9 -9,-24 0,-33l107 -107c21,-21 53,11 32,32l-91 92z" id="id_105"></path>
  <path class="fil4" d="M1675 558l0 155c0,27 22,49 49,49l156 0 -205 -204z" id="id_106"></path>
  <path class="fil5" d="M1934 1578l-1255 0c-50,0 -91,41 -91,90l0 383c0,50 41,90 91,90l1309 0c50,0 90,-40 90,-90l0 -383c0,-49 -40,-90 -90,-90l-54 0 0 0zm-248 259c63,12 142,26 142,117 0,64 -66,117 -146,117 -139,0 -177,-140 -124,-140 13,0 23,10 23,23 0,39 46,71 101,71 54,0 100,-32 100,-71 0,-48 -32,-59 -104,-72 -64,-11 -142,-26 -142,-116 0,-65 65,-117 146,-117 138,0 176,139 123,139 -13,0 -23,-10 -23,-22 0,-39 -46,-72 -100,-72 -55,0 -101,33 -101,72 0,47 32,58 105,71zm-332 0c63,12 142,26 142,117 0,64 -65,117 -146,117 -138,0 -176,-140 -123,-140 12,0 23,10 23,23 0,39 46,71 100,71 55,0 101,-32 101,-71 0,-48 -32,-59 -105,-72 -63,-11 -142,-26 -142,-116 0,-65 66,-117 146,-117 138,0 177,139 123,139 -12,0 -22,-10 -22,-22 0,-39 -46,-72 -101,-72 -54,0 -100,33 -100,72 0,47 31,58 104,71zm-181 125c-31,67 -91,109 -156,109 -98,0 -178,-95 -178,-211 0,-117 80,-212 178,-212 65,0 125,42 156,109 13,27 -28,46 -41,19 -68,-145 -247,-85 -247,84 0,168 179,229 247,83 13,-27 54,-8 41,19z" id="id_107"></path>
 </g>
</svg>