<svg xmlns="http://www.w3.org/2000/svg" xml:space="preserve" width="1.70666in" height="1.70666in" version="1.1" style="shape-rendering:geometricPrecision; text-rendering:geometricPrecision; image-rendering:optimizeQuality; fill-rule:evenodd; clip-rule:evenodd" viewBox="0 0 1707 1707" xmlns:xlink="http://www.w3.org/1999/xlink">
 <defs>
  <style type="text/css">
   
    .fil0 {fill:#000002}
    .fil1 {fill:#57555C}
    .fil2 {fill:#BCE2F6}
    .fil3 {fill:#FFE600}
   
  </style>
 </defs>
 <g id="Layer_x0020_1">
  <metadata id="CorelCorpID_0Corel-Layer"></metadata>
  <path class="fil0" d="M839 420c-15,0 -26,-15 -22,-29l58 -216c7,-29 51,-17 43,11l-57 217c-3,10 -12,17 -22,17zm615 678l0 0 -1255 0c-50,0 -91,41 -91,90l0 383c0,50 41,90 91,90l1309 0c50,0 90,-40 90,-90l0 -383c0,-49 -40,-90 -90,-90l-54 0zm-22 -45l0 -725 -188 0c-52,0 -95,-43 -95,-95l0 -188 -698 0c-97,0 -176,80 -176,177l0 831 1157 0zm45 -744l0 744 31 0c75,0 136,61 136,135l0 383c0,75 -61,136 -136,136l-1309 0c-75,0 -136,-61 -136,-136l0 -383c0,-74 61,-135 136,-135l31 0 0 -831c0,-122 99,-222 221,-222l721 0c7,0 12,3 17,7l280 280c6,6 10,13 8,22zm-282 -231l0 155c0,27 22,49 49,49l156 0 -205 -204zm73 846l-798 0c-30,0 -30,-46 0,-46l798 0c30,0 30,46 0,46zm0 -175l-798 0c-30,0 -30,-45 0,-45l798 0c30,0 30,45 0,45zm0 -174l-798 0c-30,0 -30,-46 0,-46l798 0c30,0 30,46 0,46zm-800 979c-13,0 -23,-10 -23,-23l0 -129 -162 0 0 129c0,30 -45,30 -45,0l0 -303c0,-30 45,-30 45,0l0 129 162 0 0 -129c0,-30 45,-30 45,0l0 303c0,13 -10,23 -22,23zm221 1c-13,0 -23,-10 -23,-23l0 -282 -114 0c-30,0 -30,-46 0,-46l274 0c30,0 30,46 0,46l-114 0 0 282c0,13 -11,23 -23,23zm482 -1c-12,0 -22,-10 -22,-23l0 -193 -88 202c-7,19 -33,19 -41,0l-88 -202 0 193c0,30 -45,30 -45,0l0 -303c0,-25 34,-32 44,-9l110 255 110 -255c9,-23 43,-16 43,9l0 303c0,13 -10,23 -23,23zm275 1l-190 0c-13,0 -23,-10 -23,-23l0 -305c0,-30 45,-30 45,0l0 283 168 0c30,0 30,45 0,45zm-459 -1139c-20,0 -30,-25 -16,-39l91 -91 -91 -92c-21,-21 11,-53 32,-32l108 107c8,9 8,24 0,33l-108 107c-4,4 -10,7 -16,7zm-239 0c-6,0 -12,-3 -16,-7l-107 -107c-9,-9 -9,-24 0,-33l107 -107c21,-21 53,11 32,32l-91 92 91 91c14,14 4,39 -16,39z" id="id_101"></path>
  <path class="fil1" d="M1195 233c0,27 22,49 49,49l156 0 -205 -204 0 155z" id="id_102"></path>
  <path class="fil2" d="M1432 328l-188 0c-52,0 -95,-43 -95,-95l0 -188 -698 0c-97,0 -176,80 -176,177l0 831 1157 0 0 -725zm-571 75c-3,10 -12,17 -22,17 -15,0 -26,-15 -22,-29l58 -216c7,-29 51,-17 43,11l-57 217zm-391 126l798 0c30,0 30,46 0,46l-798 0c-30,0 -30,-46 0,-46zm0 175l798 0c30,0 30,45 0,45l-798 0c-30,0 -30,-45 0,-45zm0 174l798 0c30,0 30,46 0,46l-798 0c-30,0 -30,-46 0,-46zm533 -469c-4,4 -10,7 -16,7 -20,0 -30,-25 -16,-39l91 -91 -91 -92c-21,-21 11,-53 32,-32l108 107c8,9 8,24 0,33l-108 107zm-239 -32c14,14 4,39 -16,39 -6,0 -12,-3 -16,-7l-107 -107c-9,-9 -9,-24 0,-33l107 -107c21,-21 53,11 32,32l-91 92 91 91z" id="id_103"></path>
  <path class="fil3" d="M666 1532l0 -282 -114 0c-30,0 -30,-46 0,-46l274 0c30,0 30,46 0,46l-114 0 0 282c0,13 -11,23 -23,23 -13,0 -23,-10 -23,-23zm788 -434l-1255 0c-50,0 -91,41 -91,90l0 383c0,50 41,90 91,90l1309 0c50,0 90,-40 90,-90l0 -383c0,-49 -40,-90 -90,-90l-54 0 0 0zm-964 130l0 303c0,13 -10,23 -22,23 -13,0 -23,-10 -23,-23l0 -129 -162 0 0 129c0,30 -45,30 -45,0l0 -303c0,-30 45,-30 45,0l0 129 162 0 0 -129c0,-30 45,-30 45,0zm397 303l0 -303c0,-25 34,-32 44,-9l110 255 110 -255c9,-23 43,-16 43,9l0 303c0,13 -10,23 -23,23 -12,0 -22,-10 -22,-23l0 -193 -88 202c-7,19 -33,19 -41,0l-88 -202 0 193c0,30 -45,30 -45,0zm346 1l0 -305c0,-30 45,-30 45,0l0 283 168 0c30,0 30,45 0,45l-190 0c-13,0 -23,-10 -23,-23z" id="id_104"></path>
 </g>
</svg>